# xmcd
#
# Track frame offsets: 
#        150
#        10560
#        22902
#        38825
#        51582
#        62997
#        74777
#        91107
#        101172
#        115387
#        129665
#
# Disc length: 1891 seconds
#
# Revision: 9
# Processed by: cddbd v1.5.2PL0 Copyright (c) Steve Scherf et al.
# Submitted via: ExactAudioCopyFreeDBPlugin 1.0
#
DISCID=9907610b
DTITLE=George Strait - Pure Country - Original Motion Picture Soundtra
DTITLE=ck
DYEAR=1992
DGENRE=Country
TTITLE0=Heartland
TTITLE1=Baby Your Baby
TTITLE2=I Cross My Heart
TTITLE3=When Did You Stop Loving Me
TTITLE4=She Lays It All On The Line
TTITLE5=Overnight Male
TTITLE6=Last In Love
TTITLE7=Thoughts Of A Fool
TTITLE8=The King Of Broken Hearts
TTITLE9=Where The Sidewalk Ends
TTITLE10=Heartland (Main Title Sequence)
EXTD=Original Motion Picture Soundtrack\nProduced by Tony Brown abd Ge
EXTD=orge Strait\nfor George Strait Productions\nMusic Supervisor, Arr
EXTD=anged and Produced by\n Steve Dorff
EXTT0=
EXTT1=
EXTT2=
EXTT3=
EXTT4=
EXTT5=
EXTT6=
EXTT7=
EXTT8=
EXTT9=
EXTT10=
PLAYORDER=
